<?xml version="1.0" encoding="utf-8"?>
<!-- Generator: Adobe Illustrator 22.0.1, SVG Export Plug-In . SVG Version: 6.00 Build 0)  -->
<svg version="1.1" id="Layer_1" xmlns="http://www.w3.org/2000/svg" xmlns:xlink="http://www.w3.org/1999/xlink" x="0px" y="0px"
	 viewBox="0 0 100 40" style="enable-background:new 0 0 100 40;" xml:space="preserve">
<style type="text/css">
	.st0{fill-rule:evenodd;clip-rule:evenodd;fill:#FAFAFA;}
	.st1{fill-rule:evenodd;clip-rule:evenodd;fill:#E42328;}
	.st2{fill-rule:evenodd;clip-rule:evenodd;fill:#005532;}
</style>
<g>
	<g>
		<path class="st0" d="M16.6,13l1.7-1.6c0.4-0.3,0.6-0.6,0.8-0.9c0.2-0.2,0.3-0.5,0.3-0.8c0-0.2-0.1-0.5-0.2-0.7
			c-0.1-0.2-0.3-0.4-0.4-0.6c-0.2-0.2-0.4-0.3-0.6-0.4c-0.2-0.1-0.5-0.2-0.7-0.2c-0.3,0-0.6,0.1-0.9,0.2c-0.2,0.2-0.5,0.4-0.8,0.8
			l-2,2.5c-0.4-0.1-0.9-0.2-1.4-0.3c-0.5-0.1-1-0.1-1.5-0.1c-1.3,0-2.5,0.2-3.4,0.5c-1,0.3-1.8,0.8-2.5,1.4
			c-0.7,0.6-1.2,1.3-1.5,2.1c-0.3,0.8-0.5,1.7-0.5,2.7c0,0.9,0.2,1.7,0.6,2.5c0.4,0.8,0.9,1.4,1.7,2c-0.4,0.3-0.7,0.6-0.9,0.9
			c-0.2,0.3-0.4,0.7-0.6,1.1c-0.2,0.4-0.3,0.9-0.3,1.4c0,0.6,0.1,1.1,0.3,1.5c0.2,0.5,0.5,0.9,0.9,1.3c-0.5,0.3-1,0.6-1.4,1.1
			c-0.4,0.4-0.7,0.8-1,1.4c-0.3,0.6-0.4,1.2-0.4,2c0,0.7,0.2,1.4,0.5,2.1c0.3,0.6,0.8,1.2,1.5,1.7c0.7,0.5,1.5,0.9,2.6,1.2
			c1.1,0.3,2.3,0.4,3.8,0.4c1.6,0,3-0.2,4.2-0.5c1.2-0.4,2.2-0.8,3.1-1.4c0.8-0.6,1.4-1.3,1.8-2.1c0.4-0.8,0.6-1.7,0.6-2.6
			c0-0.8-0.1-1.5-0.4-2.1c-0.3-0.6-0.7-1.2-1.3-1.6c-0.6-0.4-1.3-0.8-2.2-1c-0.9-0.2-1.9-0.4-3.1-0.4h-2.2c-0.6,0-1.1,0-1.5-0.1
			c-0.4-0.1-0.7-0.2-0.9-0.3c-0.2-0.1-0.4-0.3-0.5-0.5c-0.1-0.2-0.1-0.4-0.1-0.6c0-0.2,0-0.4,0.1-0.6c0.1-0.2,0.2-0.3,0.3-0.4
			c0.1-0.1,0.2-0.3,0.4-0.4c0.3,0.1,0.7,0.2,1,0.2c0.4,0,0.7,0.1,1.1,0.1c1.3,0,2.4-0.2,3.4-0.5c1-0.3,1.8-0.8,2.5-1.4
			c0.7-0.6,1.2-1.3,1.5-2.1c0.4-0.8,0.5-1.7,0.5-2.7c0-0.8-0.1-1.5-0.4-2.2C17.6,14.2,17.2,13.6,16.6,13L16.6,13z M10.1,29.8h1.9
			c0.6,0,1.1,0.1,1.5,0.2c0.4,0.1,0.7,0.2,1,0.4c0.2,0.2,0.4,0.4,0.5,0.7c0.1,0.3,0.2,0.5,0.2,0.9c0,0.4-0.1,0.7-0.3,1.1
			c-0.2,0.3-0.5,0.6-0.9,0.9c-0.4,0.3-0.9,0.5-1.4,0.6c-0.6,0.2-1.3,0.2-2.1,0.2c-0.7,0-1.3-0.1-1.8-0.2c-0.5-0.1-0.9-0.3-1.2-0.6
			c-0.3-0.2-0.6-0.5-0.7-0.8c-0.2-0.3-0.2-0.7-0.2-1c0-0.4,0.1-0.7,0.2-1.1c0.1-0.3,0.3-0.6,0.5-0.8c0.2-0.2,0.4-0.5,0.7-0.7
			c0.4,0.1,0.7,0.1,1.1,0.2C9.3,29.8,9.7,29.8,10.1,29.8L10.1,29.8z M7.4,17.3c0-0.4,0.1-0.9,0.2-1.2c0.1-0.4,0.3-0.7,0.6-0.9
			c0.3-0.3,0.6-0.5,1-0.6c0.4-0.1,0.8-0.2,1.3-0.2c0.5,0,1,0.1,1.4,0.2c0.4,0.2,0.7,0.4,1,0.6c0.3,0.3,0.5,0.6,0.6,1
			c0.1,0.4,0.2,0.8,0.2,1.3c0,0.4-0.1,0.9-0.2,1.2c-0.1,0.4-0.4,0.7-0.6,0.9c-0.3,0.3-0.6,0.5-1,0.6c-0.4,0.1-0.8,0.2-1.3,0.2
			c-0.5,0-0.9-0.1-1.3-0.2c-0.4-0.1-0.7-0.4-1-0.6c-0.3-0.3-0.5-0.6-0.6-1C7.5,18.2,7.4,17.7,7.4,17.3z"/>
		<path class="st0" d="M19.6,13.3v14.1c0,0.7,0.2,1.2,0.6,1.6c0.4,0.4,1,0.6,1.8,0.6c0.8,0,1.4-0.2,1.8-0.6c0.4-0.4,0.6-0.9,0.6-1.6
			V13.3c0-0.7-0.2-1.2-0.6-1.6c-0.4-0.4-1-0.6-1.8-0.6c-0.8,0-1.4,0.2-1.8,0.6C19.8,12.1,19.6,12.6,19.6,13.3L19.6,13.3z M19.1,6
			c0,0.4,0.1,0.7,0.2,1.1c0.1,0.3,0.3,0.6,0.6,0.9c0.3,0.2,0.6,0.4,0.9,0.6c0.4,0.1,0.7,0.2,1.1,0.2c0.4,0,0.8-0.1,1.2-0.2
			c0.4-0.1,0.7-0.3,0.9-0.6c0.3-0.2,0.5-0.5,0.6-0.9c0.1-0.3,0.2-0.7,0.2-1.1c0-0.4-0.1-0.7-0.2-1.1c-0.1-0.3-0.3-0.6-0.6-0.9
			c-0.3-0.2-0.6-0.4-0.9-0.6c-0.4-0.1-0.7-0.2-1.1-0.2c-0.4,0-0.8,0.1-1.2,0.2c-0.4,0.1-0.7,0.3-0.9,0.6c-0.3,0.2-0.5,0.5-0.6,0.9
			C19.2,5.2,19.1,5.6,19.1,6z"/>
		<path class="st0" d="M37.8,5.2v4.1c0,0.7,0,1.3,0.1,1.9l-0.1,0c-0.2,0-0.4-0.1-0.7-0.1C37,11,36.7,11,36.4,11c-0.3,0-0.6,0-0.9,0
			c-1.6,0-3.1,0.2-4.3,0.7c-1.3,0.4-2.3,1.1-3.2,1.9c-0.9,0.8-1.5,1.9-2,3.1c-0.4,1.2-0.7,2.6-0.7,4.2c0,1.5,0.2,2.8,0.5,3.9
			c0.4,1.1,0.9,2,1.5,2.8c0.6,0.7,1.4,1.3,2.3,1.7c0.9,0.4,1.9,0.6,3,0.6c1,0,1.8-0.1,2.5-0.4c0.7-0.3,1.3-0.6,1.7-1
			c0.5-0.4,1-0.9,1.3-1.4h0.1l0.2,0.9c0,0.3,0.1,0.5,0.2,0.7c0.1,0.2,0.2,0.4,0.4,0.5c0.2,0.1,0.4,0.3,0.6,0.3
			c0.2,0.1,0.5,0.1,0.8,0.1c0.6,0,1.1-0.2,1.5-0.5c0.3-0.3,0.5-0.8,0.5-1.5V5.2c0-0.7-0.2-1.2-0.6-1.6C41.7,3.2,41,3,40.2,3
			c-0.8,0-1.4,0.2-1.8,0.6C38,4,37.8,4.5,37.8,5.2L37.8,5.2z M37.8,15.2v8c-0.3,0.5-0.6,0.9-1,1.3c-0.2,0.2-0.4,0.3-0.5,0.5
			c-0.2,0.2-0.4,0.3-0.6,0.4c-0.2,0.1-0.5,0.2-0.8,0.3c-0.3,0.1-0.6,0.1-0.9,0.1c-0.6,0-1.1-0.1-1.5-0.3c-0.5-0.2-0.8-0.5-1.2-0.9
			c-0.3-0.4-0.6-1-0.8-1.7c-0.2-0.7-0.3-1.5-0.3-2.5c0-1,0.1-1.8,0.3-2.5c0.2-0.7,0.6-1.3,1-1.8c0.4-0.5,0.9-0.8,1.5-1.1
			c0.6-0.2,1.2-0.4,1.9-0.4c0.4,0,0.8,0,1.2,0.1c0.3,0.1,0.6,0.1,0.9,0.2C37.4,15,37.6,15.1,37.8,15.2z"/>
		<path class="st0" d="M44.7,13.3v14.1c0,0.7,0.2,1.2,0.6,1.6c0.4,0.4,1,0.6,1.8,0.6c0.8,0,1.4-0.2,1.8-0.6c0.4-0.4,0.6-0.9,0.6-1.6
			V13.3c0-0.7-0.2-1.2-0.6-1.6c-0.4-0.4-1-0.6-1.8-0.6c-0.8,0-1.4,0.2-1.8,0.6C44.9,12.1,44.7,12.6,44.7,13.3L44.7,13.3z M44.2,6
			c0,0.4,0.1,0.7,0.2,1.1c0.1,0.3,0.3,0.6,0.6,0.9c0.3,0.2,0.6,0.4,0.9,0.6c0.4,0.1,0.7,0.2,1.1,0.2c0.4,0,0.8-0.1,1.2-0.2
			c0.4-0.1,0.7-0.3,0.9-0.6c0.3-0.2,0.5-0.5,0.6-0.9C50,6.6,50,6.3,50,5.9c0-0.4-0.1-0.7-0.2-1.1c-0.1-0.3-0.3-0.6-0.6-0.9
			c-0.3-0.2-0.6-0.4-0.9-0.6c-0.4-0.1-0.7-0.2-1.1-0.2c-0.4,0-0.8,0.1-1.2,0.2C45.6,3.5,45.3,3.7,45,4c-0.3,0.2-0.5,0.5-0.6,0.9
			C44.3,5.2,44.2,5.6,44.2,6z"/>
		<path class="st0" d="M51.6,13.1v14.2c0,0.7,0.2,1.2,0.6,1.6c0.4,0.4,1,0.6,1.8,0.6c0.8,0,1.4-0.2,1.8-0.6c0.4-0.4,0.6-0.9,0.6-1.6
			v-10c0.2-0.5,0.6-0.9,0.9-1.3c0.2-0.2,0.3-0.3,0.5-0.5c0.2-0.2,0.4-0.3,0.6-0.4c0.2-0.1,0.5-0.2,0.7-0.3c0.3-0.1,0.5-0.1,0.8-0.1
			c0.5,0,0.9,0.1,1.3,0.2c0.4,0.2,0.7,0.4,1,0.7c0.3,0.3,0.5,0.8,0.6,1.3c0.2,0.5,0.2,1.1,0.2,1.9v8.4c0,0.7,0.2,1.2,0.6,1.6
			c0.4,0.4,1,0.6,1.8,0.6c0.8,0,1.4-0.2,1.8-0.6c0.4-0.4,0.6-0.9,0.6-1.6v-8.2c0-0.4,0-0.7,0-1c0-0.3,0-0.5,0-0.7
			c0.3-0.5,0.6-0.9,0.9-1.3c0.2-0.2,0.3-0.3,0.5-0.5c0.2-0.2,0.4-0.3,0.6-0.4c0.2-0.1,0.5-0.2,0.7-0.3c0.3-0.1,0.6-0.1,0.9-0.1
			c0.5,0,0.9,0.1,1.3,0.2c0.4,0.2,0.7,0.4,1,0.7c0.3,0.3,0.5,0.8,0.6,1.3c0.1,0.5,0.2,1.1,0.2,1.9v8.4c0,0.7,0.2,1.2,0.6,1.6
			c0.4,0.4,1,0.6,1.8,0.6c0.8,0,1.4-0.2,1.8-0.6c0.4-0.4,0.6-0.9,0.6-1.6v-9c0-1.2-0.2-2.3-0.5-3.2c-0.3-0.9-0.8-1.7-1.3-2.3
			c-0.6-0.6-1.3-1.1-2.1-1.4C74.9,11.1,74,11,73,11c-0.5,0-1,0-1.4,0.1c-0.4,0.1-0.8,0.2-1.2,0.4c-0.4,0.2-0.7,0.3-1,0.5
			c-0.3,0.2-0.6,0.4-0.8,0.6c-0.6,0.5-1.1,1-1.4,1.5c-0.5-1-1.3-1.7-2.2-2.3c-0.9-0.5-2.1-0.8-3.5-0.8c-0.5,0-0.9,0-1.3,0.1
			c-0.4,0.1-0.8,0.2-1.1,0.3c-0.3,0.1-0.7,0.3-0.9,0.4c-0.3,0.2-0.5,0.3-0.7,0.5c-0.5,0.4-0.9,0.9-1.3,1.4h-0.1l-0.1-0.9
			c0-0.3-0.1-0.5-0.2-0.7c-0.1-0.2-0.2-0.4-0.4-0.5c-0.2-0.1-0.4-0.3-0.6-0.3c-0.2-0.1-0.5-0.1-0.8-0.1c-0.7,0-1.2,0.2-1.5,0.5
			C51.8,12,51.6,12.5,51.6,13.1z"/>
		<path class="st0" d="M80.4,20.7c0,1.4,0.2,2.6,0.6,3.7c0.4,1.1,1,2.1,1.8,2.9c0.8,0.8,1.7,1.4,2.9,1.8c1.1,0.4,2.4,0.6,3.7,0.6
			c1.5,0,2.8-0.2,4-0.7c1.2-0.4,2.2-1.1,3-1.9c0.8-0.8,1.4-1.9,1.9-3.1c0.4-1.2,0.7-2.6,0.7-4.1c0-1.4-0.2-2.6-0.6-3.7
			c-0.4-1.1-1-2.1-1.8-2.9c-0.8-0.8-1.7-1.4-2.9-1.8c-1.1-0.4-2.3-0.6-3.7-0.6c-1.5,0-2.8,0.2-4,0.7c-1.2,0.4-2.2,1.1-3,1.9
			c-0.8,0.8-1.5,1.9-1.9,3.1C80.7,17.8,80.4,19.1,80.4,20.7L80.4,20.7z M85.4,20.3c0-0.9,0.1-1.8,0.3-2.5c0.2-0.7,0.5-1.3,0.9-1.8
			c0.4-0.5,0.8-0.8,1.4-1.1c0.5-0.2,1.1-0.4,1.7-0.4c0.6,0,1.2,0.1,1.7,0.4c0.5,0.2,1,0.6,1.4,1.1c0.4,0.5,0.7,1.1,0.9,1.8
			c0.2,0.7,0.3,1.5,0.3,2.5c0,0.9-0.1,1.8-0.3,2.5c-0.2,0.7-0.5,1.3-0.9,1.8c-0.4,0.5-0.8,0.8-1.4,1.1c-0.5,0.2-1.1,0.4-1.7,0.4
			c-0.6,0-1.2-0.1-1.7-0.4c-0.5-0.2-1-0.6-1.4-1.1c-0.4-0.5-0.7-1.1-0.9-1.8C85.5,22.1,85.4,21.2,85.4,20.3z"/>
		<path class="st1" d="M22.2,2.7c1.8,0,3.3,1.5,3.3,3.3c0,1.8-1.5,3.3-3.3,3.3c-1.8,0-3.3-1.5-3.3-3.3C18.9,4.2,20.4,2.7,22.2,2.7z"
			/>
		<path class="st2" d="M47.3,2.7c1.8,0,3.3,1.5,3.3,3.3c0,1.8-1.5,3.3-3.3,3.3c-1.8,0-3.3-1.5-3.3-3.3C44,4.1,45.5,2.7,47.3,2.7z"/>
	</g>
</g>
</svg>
